<svg width="201" height="65" viewBox="0 0 201 65" fill="none" xmlns="http://www.w3.org/2000/svg">
<path d="M5.78447 47.9299H1.51123V59.6771H5.73236C9.84926 59.6771 11.6732 57.4466 11.6732 53.5309C11.7253 49.7143 9.5887 47.9299 5.78447 47.9299ZM5.8887 58.3388H3.17884V49.2187H5.94081C8.96335 49.2187 10.0577 50.9039 10.0577 53.7292C10.0577 58.0414 7.03518 58.3388 5.8887 58.3388Z" fill="white"/>
<path d="M19.3859 55.9598C19.3859 57.4963 18.5 58.6363 16.7282 58.6363C15.5817 58.6363 14.9042 57.9424 14.9042 56.9015V51.1519H13.4451V56.7528C13.4451 58.5868 14.1746 59.8755 16.5197 59.8755C17.8225 59.8755 18.8127 59.3798 19.438 58.3389H19.4901V59.6772H20.8451V51.1519H19.3859V55.9598Z" fill="white"/>
<path d="M27.5155 50.954C26.2648 50.954 25.1705 51.3505 24.6493 52.2922H24.5972V47.8809H23.1381V59.628H24.5972V58.488H24.6493C25.3268 59.4793 26.6296 59.8263 27.5155 59.8263C30.2254 59.8263 31.5803 57.7941 31.5803 55.4149C31.6324 53.0357 30.2254 50.954 27.5155 50.954ZM27.3592 58.6367C25.3268 58.6367 24.5451 57.1001 24.5451 55.4149C24.5451 53.8288 25.3268 52.1931 27.255 52.1931C29.1831 52.1931 30.0169 53.7296 30.0169 55.3158C30.069 57.001 29.3916 58.6367 27.3592 58.6367Z" fill="white"/>
<path d="M40.3353 57.6946V53.3328C40.3353 51.3501 38.5635 51.0032 37.0001 51.0032C35.0198 51.0032 33.3001 51.7467 33.1958 53.8284H34.655C34.7071 52.5893 35.6451 52.1928 36.8958 52.1928C37.8339 52.1928 38.8761 52.391 38.8761 53.6302C38.8761 54.6711 37.4691 54.5719 35.8536 54.8693C34.3423 55.1667 32.8311 55.5632 32.8311 57.4963C32.8311 59.1816 34.186 59.8755 35.8015 59.8755C37.0522 59.8755 38.1465 59.479 38.9282 58.5372C38.9282 59.479 39.3973 59.8755 40.1789 59.8755C40.648 59.8755 40.9606 59.7764 41.2212 59.6277V58.5372C41.0127 58.5868 40.9085 58.6363 40.7522 58.6363C40.3353 58.6363 40.3353 58.3389 40.3353 57.6946ZM38.8761 56.7033C38.8761 57.4963 38.0944 58.6363 36.1663 58.6363C35.2804 58.6363 34.4465 58.2894 34.4465 57.3972C34.4465 56.3563 35.2804 56.0093 36.2705 55.8606C37.2606 55.7119 38.355 55.6624 38.9282 55.2658V56.7033H38.8761Z" fill="white"/>
<path d="M44.1916 51.1519H42.7324V59.6772H44.1916V51.1519Z" fill="white"/>
<path d="M44.1916 47.9299H42.7324V49.6647H44.1916V47.9299Z" fill="white"/>
<path d="M56.7507 58.6362C53.7803 58.6362 52.5295 56.4058 52.5295 53.7292C52.5295 51.3005 53.7803 48.9709 56.6986 48.9709C58.4183 48.9709 59.8253 49.8135 60.138 51.4492H61.8056C61.4408 48.9709 59.3042 47.6326 56.6986 47.6326C52.8943 47.6326 50.8619 50.4083 50.8619 53.8283C50.8619 57.2484 52.738 59.9249 56.5943 59.9249C59.7211 59.9249 61.6493 58.1406 61.9619 55.2162H60.2943C60.1901 57.1988 58.9394 58.6362 56.7507 58.6362Z" fill="white"/>
<path d="M69.6746 55.9598C69.6746 57.4963 68.7887 58.6363 67.0169 58.6363C65.8704 58.6363 65.1929 57.9424 65.1929 56.9015V51.1519H63.7338V56.7528C63.7338 58.5868 64.4633 59.8755 66.8084 59.8755C68.1112 59.8755 69.1014 59.3798 69.7267 58.3389H69.7788V59.6772H71.1859V51.1519H69.7267V55.9598H69.6746Z" fill="white"/>
<path d="M77.4914 54.7704C76.1365 54.473 74.5731 54.2748 74.5731 53.2835C74.5731 52.4408 75.6154 52.193 76.5013 52.193C77.4914 52.193 78.4816 52.54 78.5858 53.6304H80.045C79.9407 51.5486 78.3252 50.9539 76.3971 50.9539C74.8337 50.9539 73.0619 51.6478 73.0619 53.3826C73.0619 55.0183 74.521 55.4644 75.9802 55.7618C77.4393 56.0592 78.8985 56.2574 78.8985 57.3479C78.8985 58.4383 77.6478 58.6366 76.7619 58.6366C75.5633 58.6366 74.4168 58.2401 74.3647 57.0009H72.9055C73.0097 59.0827 74.6774 59.8757 76.7097 59.8757C78.5337 59.8757 80.514 59.2314 80.514 57.1992C80.4097 55.5139 78.9506 55.0678 77.4914 54.7704Z" fill="white"/>
<path d="M84.0577 48.624H82.5985V51.1519H81.0873V52.391H82.5985V57.7937C82.5985 59.3798 83.2239 59.6277 84.7352 59.6277H85.8816V58.3885H85.2042C84.2662 58.3885 84.1098 58.2894 84.1098 57.645V52.3415H85.8816V51.1023H84.1098V48.624H84.0577Z" fill="white"/>
<path d="M91.3536 50.9539C88.5395 50.9539 87.0282 52.8869 87.0282 55.4148C87.0282 57.8931 88.5395 59.8757 91.3536 59.8757C94.1676 59.8757 95.6789 57.9427 95.6789 55.4148C95.6789 52.9365 94.1676 50.9539 91.3536 50.9539ZM91.3536 58.6366C89.7902 58.6366 88.5916 57.4966 88.5916 55.4148C88.5916 53.333 89.8423 52.193 91.3536 52.193C92.9169 52.193 94.1155 53.333 94.1155 55.4148C94.1155 57.4966 92.8648 58.6366 91.3536 58.6366Z" fill="white"/>
<path d="M106.987 50.9539C105.841 50.9539 104.799 51.4991 104.173 52.3913C103.809 51.3504 102.818 50.9539 101.724 50.9539C100.473 50.9539 99.4832 51.4495 98.8578 52.3913H98.8057V51.1521H97.3987V59.6775H98.8578V54.3739C98.8578 53.7296 99.4832 52.193 101.255 52.193C102.558 52.193 102.923 52.9861 102.923 54.0765V59.6279H104.382V54.3243C104.382 52.9861 105.32 52.1434 106.727 52.1434C108.186 52.1434 108.447 52.9861 108.447 54.0269V59.5783H109.906V53.333C109.958 51.6478 108.759 50.9539 106.987 50.9539Z" fill="white"/>
<path d="M116.264 54.7704C114.909 54.473 113.345 54.2748 113.345 53.2835C113.345 52.4408 114.387 52.193 115.273 52.193C116.264 52.193 117.254 52.54 117.358 53.6304H118.817C118.713 51.5486 117.097 50.9539 115.169 50.9539C113.606 50.9539 111.834 51.6478 111.834 53.3826C111.834 55.0183 113.293 55.4644 114.752 55.7618C116.211 56.0592 117.671 56.2574 117.671 57.3479C117.671 58.4383 116.42 58.6366 115.534 58.6366C114.335 58.6366 113.189 58.2401 113.137 57.0009H111.678C111.782 59.0827 113.449 59.8757 115.482 59.8757C117.306 59.8757 119.286 59.2314 119.286 57.1992C119.182 55.5139 117.723 55.0678 116.264 54.7704Z" fill="white"/>
<path d="M7.66063 45.6502C7.66063 45.105 7.34795 44.8076 6.77471 44.8076C6.20147 44.8076 5.88879 45.105 5.88879 45.6502C5.88879 46.1955 6.14936 46.4929 6.77471 46.4929C7.40006 46.4929 7.66063 46.1955 7.66063 45.6502Z" fill="white"/>
<path d="M4.79441 45.6502C4.79441 45.105 4.53385 44.8076 3.9085 44.8076C3.33526 44.8076 3.02258 45.105 3.02258 45.6502C3.02258 46.1955 3.33526 46.4929 3.9085 46.4929C4.53385 46.4929 4.79441 46.1955 4.79441 45.6502Z" fill="white"/>
<path d="M35.4366 34.8446V29.2437L33.9775 29.7393V34.6959C33.9775 36.282 33.2479 37.0255 31.7366 37.0255H31.0592H30.6944H27.6197H27.0986H24.1803H23.6592H20.8451H20.324H17.4056H16.8845H13.9662H13.4451H10.2662H10.0056H9.06761C8.02536 37.0255 7.29578 36.4307 6.82676 35.2411L6.25352 36.6786C6.61831 37.6699 7.4 38.3142 8.91127 38.3142C8.80705 39.9995 7.19155 40.7925 5.10704 40.7925C2.55352 40.7925 1.40704 38.9586 1.40704 36.5299C1.40704 35.4394 1.66761 33.8533 2.39718 32.0193L0.833803 33.0602C0.312676 34.4481 0 35.7368 0 36.8768C0 39.9003 1.82394 42.1308 5.10704 42.1308C8.39014 42.1308 10.3704 40.4456 10.3704 38.2647H13.5493H14.0704H16.9887H17.5099H20.324H20.8451H23.7634H24.2845H27.2028H27.724H30.7986H31.1634H31.9451C34.0296 38.3142 35.4366 36.9264 35.4366 34.8446Z" fill="white"/>
<path d="M34.1338 41.784C34.1338 41.2388 33.8732 40.9414 33.2479 40.9414C32.6746 40.9414 32.3619 41.2388 32.3619 41.784C32.3619 42.3293 32.6746 42.6267 33.2479 42.6267C33.8211 42.6267 34.1338 42.3293 34.1338 41.784Z" fill="white"/>
<path d="M41.169 29.6898C40.0746 29.7393 39.0844 30.1854 38.3549 30.9785V32.6637C39.0844 31.6724 40.0746 30.9785 41.169 30.9785C42.4718 30.9785 43.4619 31.722 43.4619 33.3081V37.0255H38.1464L37.2605 38.3142H44.9211V33.2089C44.9211 31.028 43.4098 29.6402 41.169 29.6898Z" fill="white"/>
<path d="M59.9817 31.4744H56.6986V30.7805C56.6986 30.037 57.2197 29.3927 57.9493 29.3927C58.3141 29.3927 58.6268 29.5909 58.9916 29.8883L59.7211 29.1944C59.2 28.6988 58.6789 28.5005 58.1056 28.5005C56.5944 28.5005 55.7085 29.5909 55.7085 30.9788V31.4744H54.7183L53.8324 32.3666H59.9296V31.4744H59.9817Z" fill="white"/>
<path d="M64.4112 25.4272L63.0042 25.8733V34.6961C63.0042 36.2822 62.2225 37.0257 60.7633 37.0257H53.8844C52.3732 37.0257 51.5915 36.2822 51.5915 34.6961V30.5325L50.1844 32.2178V34.8448C50.1844 36.9761 51.5394 38.3144 53.6239 38.3144H60.8676C62.9521 38.3144 64.4633 36.9761 64.4633 34.8448V25.4272H64.4112Z" fill="white"/>
<path d="M70.248 37.7692C70.248 39.4545 69.3621 40.9415 67.5381 40.9415C66.8085 40.9415 65.8705 40.8423 64.8282 40.2475L65.5057 41.685C66.1832 41.9824 67.1212 42.1311 67.6944 42.1311C70.6128 42.1311 71.7592 40.0493 71.7071 37.4718V29.2935L70.3001 29.7396V37.7692H70.248Z" fill="white"/>
<path d="M116.368 41.784C116.368 41.2388 116.107 40.9414 115.482 40.9414C114.908 40.9414 114.596 41.2388 114.596 41.784C114.596 42.3293 114.908 42.6267 115.482 42.6267C116.107 42.6267 116.368 42.3293 116.368 41.784Z" fill="white"/>
<path d="M115.273 29.1447C113.866 29.1447 112.511 29.7395 111.156 30.9291L112.094 31.8708C113.137 30.9291 114.283 30.4334 115.273 30.4334C118.452 30.4334 118.608 33.11 118.661 35.737V37.0753H109.593H109.384H108.394C106.831 37.0753 106.101 36.2822 106.101 34.6961C105.893 32.4161 104.746 31.0282 102.401 31.0282C99.7957 31.0282 98.7014 32.763 98.6493 35.1422C98.4929 36.3813 97.7112 37.0753 96.4084 37.0753H95.7831H95.4183H92.3436H91.8225H88.9042H88.3831H85.4647H84.9436H82.0253H81.5042H78.4295H78.0647H76.3971C75.6154 37.0753 75.2507 36.6787 75.2507 35.8361V25.4272L73.7915 25.8238V35.8361C73.7915 37.4718 74.6253 38.3144 76.1887 38.3144H78.0647H78.4295H81.5042H82.0253H84.9436H85.4647H88.3831H88.9042H91.8225H92.3436H95.4183H95.7831H96.5647C97.5549 38.3144 98.4408 38.017 99.0662 37.4718C99.6394 38.8596 100.682 39.6031 102.453 39.6031C104.173 39.6031 105.372 38.7605 105.841 37.2735C106.57 37.9674 107.404 38.2648 108.551 38.2648H109.384H109.593H120.172V35.2413C120.172 32.2674 119.546 29.1447 115.273 29.1447ZM102.401 38.364C100.786 38.364 100.161 37.3726 100.161 35.2909C100.161 33.2091 100.838 32.2674 102.401 32.2674C104.017 32.2674 104.59 33.2091 104.59 35.2909C104.59 37.3726 103.965 38.364 102.401 38.364Z" fill="white"/>
<path d="M193.391 52.7876C193.391 52.7876 195.84 49.0702 187.867 47.5832C179.32 45.9971 170.669 46.8397 163.999 49.665C157.329 52.5398 155.453 51.6476 155.453 51.6476C155.453 51.6476 159.517 49.8632 171.764 53.1346C180.31 55.4146 189.274 54.9685 190.733 54.3242C192.192 53.6798 193.391 52.7876 193.391 52.7876Z" fill="#82602B"/>
<path d="M147.531 36.7284C145.916 35.3901 142.633 32.317 140.913 27.3108C140.392 25.7743 139.402 22.8499 139.923 19.2316C140.756 13.2341 144.873 7.78182 144.873 7.83139C143.727 8.67401 134.086 16.208 134.347 27.0134C134.451 32.7135 137.421 37.7197 137.942 38.5623C139.506 41.1397 141.121 42.7754 142.633 44.2624C148.678 50.3095 155.087 53.333 158.266 54.7704C161.81 56.4061 164.885 57.3478 166.396 57.7939C168.949 58.587 170.617 58.9339 173.796 59.6279C178.33 60.6192 180.414 60.867 182.707 60.52C183.28 60.4209 184.062 60.2227 184.635 59.8757C187.658 58.0417 191.045 55.5139 193.338 52.7382V52.6886C186.147 52.0443 179.893 51.0034 175.516 49.9625C170.878 48.872 166.865 47.8807 161.966 45.6998C155.556 43.0232 150.814 39.5536 147.531 36.7284Z" fill="#BB9753"/>
<path d="M159.569 32.5648C157.954 33.6056 159.517 35.9352 161.185 35.0431C161.55 34.8448 161.967 34.6465 162.279 34.4483C166.083 32.5152 173.796 30.8795 182.551 32.5152C190.889 34.1013 195.006 34.0022 197.82 33.0604C199.488 32.4656 200.79 30.5326 200.79 30.5326C200.79 30.5326 201.207 27.0629 191.567 26.1212C184.114 25.4273 169.992 26.0221 159.569 32.5648Z" fill="#236993"/>
<path d="M195.423 15.5145C195.579 15.1179 195.475 14.7214 195.214 14.3744C194.433 13.5814 192.4 12.144 188.909 11.7474C185.157 11.3013 175.672 10.0622 164.781 14.1266C163.374 14.6718 165.666 16.6049 167.074 16.1588L165.666 16.5058C165.666 16.5058 163.113 16.1588 171.451 16.7536C178.226 17.2493 185.574 19.2319 189.378 18.8354C192.765 18.4884 194.745 17.2493 195.423 15.5145Z" fill="#77787B"/>
<path d="M162.435 61.3625C168.533 59.5781 172.702 60.2225 175.047 60.9164C175.516 61.0651 178.225 61.8086 178.121 62.5521C178.069 63.1964 175.828 63.6425 173.327 64.0886C172.337 64.2869 171.607 64.386 170.461 64.5347C165.354 65.0304 161.08 64.2869 160.507 64.1878C160.142 64.1382 156.964 63.4938 153.68 62.1555C149.355 60.3712 139.923 55.2163 135.389 44.5596C132.575 37.9673 132.783 31.9699 133.252 28.5994C133.096 31.7716 133.044 42.3291 140.652 50.8049C145.447 56.1581 151.804 58.9833 154.097 60.0242C155.244 60.5199 157.954 61.6599 161.549 62.5025C165.406 63.3947 168.011 63.3947 169.523 63.2956C171.034 63.1964 173.483 62.899 173.483 62.5025C173.483 62.0564 170.461 61.6103 169.783 61.5608C167.907 61.2634 165.458 61.1147 162.435 61.3625Z" fill="#BB9753"/>
<path d="M175.203 3.81656C175.047 3.91569 174.109 4.41135 173.952 5.35311C173.848 5.9479 174.056 6.44356 174.161 6.64182C174.578 7.53401 175.411 8.1288 176.506 8.5749C176.923 8.77316 178.59 9.46708 182.603 9.81405C183.645 9.91318 185.052 9.91318 186.72 9.81405C188.648 9.71491 189.586 9.61578 189.794 9.21925C190.368 7.9801 185.313 4.75831 185 4.56005C184.166 4.01482 180.935 2.08175 176.766 1.23913C175.307 0.941732 173.535 0.644336 172.858 0.545204C172.702 0.545204 171.19 0.297374 169.262 0.198242C169.158 0.198242 173.587 1.23913 175.516 1.73479C176.349 1.93305 177.392 2.23045 178.486 2.62698C179.216 2.87481 179.685 3.12264 180.727 3.56873C182.29 4.31222 183.072 4.75831 183.802 5.40267C184.271 5.84877 184.531 6.0966 184.479 6.34443C184.375 7.03835 182.342 7.38531 180.935 7.43488C179.372 7.43488 175.985 7.08792 175.62 5.40267C175.359 4.26265 177.548 3.22177 178.173 3.22177C180.31 3.27133 176.818 3.0235 175.203 3.81656Z" fill="#BCBEC0"/>
<path d="M190.368 17.2491C189.482 17.3978 188.648 17.596 187.71 17.596C186.355 17.6456 184.948 17.7447 182.759 17.596C179.424 17.3482 176.819 16.9021 176.037 16.7534C169.835 15.6134 166.761 14.969 163.738 12.7881C161.289 11.0038 160.82 9.56635 160.716 8.67416C160.507 7.13761 161.237 5.8489 161.602 5.2541C162.8 3.17233 164.885 2.18101 165.771 1.78448C166.344 1.53665 166.813 1.38796 167.126 1.23926C165.823 1.33839 164.728 1.58622 163.947 1.83405C163.374 1.98275 162.435 2.28014 161.289 2.82537C160.195 3.3706 159.361 3.96539 158.735 4.46105C158.006 5.05584 156.599 6.29499 156.13 8.22806C155.504 10.7064 156.703 12.8377 157.224 13.7795C161.966 22.2552 179.581 24.337 181.561 24.5848C184.114 24.9318 186.303 25.0805 187.919 25.1796C194.12 25.5266 196.882 25.0309 198.289 24.684C198.914 24.5353 199.488 24.337 199.8 24.1387C199.8 24.1387 198.758 19.5291 195.266 14.4734C195.892 15.4151 192.817 16.803 190.368 17.2491Z" fill="#BCBEC0"/>
<path d="M182.812 31.0779C165.823 26.9143 156.443 21.0656 152.795 16.109C149.199 11.2019 149.512 2.13134 165.458 0.049566C165.51 0.049566 165.51 0 165.458 0C162.592 0.049566 148.521 0.941754 144.821 11.8958C139.767 26.8648 165.614 39.3058 170.148 41.0902C174.734 42.9242 186.355 47.9303 197.56 45.0059C197.976 44.9068 198.341 44.5103 198.55 44.1633C201.312 38.5128 200.791 30.6814 200.791 30.4335C200.791 30.2353 193.964 33.804 182.812 31.0779Z" fill="#4485B7"/>
</svg>
